<?xml version="1.0" encoding="UTF-8" ?>
<svg version="1.1" width="64" height="64" xmlns="http://www.w3.org/2000/svg" shape-rendering="crispEdges">
<rect x="23" y="12" width="18" height="2" fill="#8F563B" />
<rect x="20" y="13" width="3" height="1" fill="#8F563B" />
<rect x="41" y="13" width="3" height="1" fill="#8F563B" />
<rect x="14" y="14" width="7" height="1" fill="#8F563B" />
<rect x="21" y="14" width="22" height="1" fill="#663931" />
<rect x="43" y="14" width="4" height="1" fill="#8F563B" />
<rect x="47" y="14" width="3" height="2" fill="#663931" />
<rect x="12" y="15" width="3" height="1" fill="#8F563B" />
<rect x="15" y="15" width="2" height="1" fill="#663931" />
<rect x="17" y="15" width="30" height="1" fill="#FFFFFF" />
<rect x="50" y="15" width="2" height="3" fill="#663931" />
<rect x="12" y="16" width="1" height="15" fill="#FFFFFF" />
<rect x="13" y="16" width="1" height="2" fill="#8F563B" />
<rect x="14" y="16" width="2" height="1" fill="#663931" />
<rect x="16" y="16" width="30" height="1" fill="#FFFFFF" />
<rect x="46" y="16" width="4" height="1" fill="#8F563B" />
<rect x="14" y="17" width="8" height="2" fill="#8F563B" />
<rect x="22" y="17" width="19" height="1" fill="#FFFFFF" />
<rect x="41" y="17" width="6" height="1" fill="#8F563B" />
<rect x="47" y="17" width="3" height="1" fill="#663931" />
<rect x="13" y="18" width="1" height="2" fill="#5B6EE1" />
<rect x="22" y="18" width="2" height="2" fill="#8F563B" />
<rect x="24" y="18" width="2" height="1" fill="#FFFFFF" />
<rect x="26" y="18" width="17" height="1" fill="#8F563B" />
<rect x="43" y="18" width="4" height="1" fill="#663931" />
<rect x="47" y="18" width="1" height="4" fill="#FFFFFF" />
<rect x="48" y="18" width="2" height="1" fill="#663931" />
<rect x="50" y="18" width="1" height="24" fill="#3F3F74" />
<rect x="14" y="19" width="6" height="3" fill="#5B6EE1" />
<rect x="20" y="19" width="2" height="1" fill="#8F563B" />
<rect x="24" y="19" width="1" height="19" fill="#FFFFFF" />
<rect x="25" y="19" width="3" height="1" fill="#8F563B" />
<rect x="28" y="19" width="1" height="1" fill="#663931" />
<rect x="29" y="19" width="2" height="1" fill="#8F563B" />
<rect x="31" y="19" width="1" height="1" fill="#663931" />
<rect x="32" y="19" width="1" height="1" fill="#8F563B" />
<rect x="33" y="19" width="1" height="1" fill="#663931" />
<rect x="34" y="19" width="1" height="1" fill="#8F563B" />
<rect x="35" y="19" width="2" height="1" fill="#663931" />
<rect x="37" y="19" width="1" height="2" fill="#FFFFFF" />
<rect x="38" y="19" width="3" height="1" fill="#663931" />
<rect x="41" y="19" width="1" height="1" fill="#8F563B" />
<rect x="42" y="19" width="2" height="1" fill="#663931" />
<rect x="44" y="19" width="1" height="1" fill="#5B6EE1" />
<rect x="45" y="19" width="1" height="3" fill="#3F3F74" />
<rect x="46" y="19" width="1" height="1" fill="#5B6EE1" />
<rect x="48" y="19" width="1" height="1" fill="#5B6EE1" />
<rect x="49" y="19" width="1" height="23" fill="#3F3F74" />
<rect x="13" y="20" width="1" height="1" fill="#3F3F74" />
<rect x="20" y="20" width="4" height="12" fill="#5B6EE1" />
<rect x="25" y="20" width="6" height="2" fill="#5B6EE1" />
<rect x="31" y="20" width="1" height="29" fill="#D95763" />
<rect x="32" y="20" width="1" height="1" fill="#AC3232" />
<rect x="33" y="20" width="1" height="2" fill="#5B6EE1" />
<rect x="34" y="20" width="1" height="1" fill="#3F3F74" />
<rect x="35" y="20" width="1" height="7" fill="#5B6EE1" />
<rect x="36" y="20" width="1" height="1" fill="#3F3F74" />
<rect x="38" y="20" width="1" height="12" fill="#FFFFFF" />
<rect x="39" y="20" width="1" height="1" fill="#5B6EE1" />
<rect x="40" y="20" width="5" height="1" fill="#3F3F74" />
<rect x="46" y="20" width="1" height="1" fill="#3F3F74" />
<rect x="48" y="20" width="1" height="1" fill="#3F3F74" />
<rect x="13" y="21" width="1" height="5" fill="#5B6EE1" />
<rect x="32" y="21" width="1" height="3" fill="#D95763" />
<rect x="34" y="21" width="1" height="1" fill="#5B6EE1" />
<rect x="36" y="21" width="1" height="1" fill="#5B6EE1" />
<rect x="37" y="21" width="1" height="1" fill="#3F3F74" />
<rect x="39" y="21" width="1" height="1" fill="#3F3F74" />
<rect x="40" y="21" width="1" height="1" fill="#5B6EE1" />
<rect x="41" y="21" width="1" height="1" fill="#3F3F74" />
<rect x="42" y="21" width="1" height="1" fill="#5B6EE1" />
<rect x="43" y="21" width="1" height="11" fill="#3F3F74" />
<rect x="44" y="21" width="1" height="1" fill="#5B6EE1" />
<rect x="46" y="21" width="1" height="1" fill="#5B6EE1" />
<rect x="48" y="21" width="1" height="21" fill="#FFFFFF" />
<rect x="14" y="22" width="4" height="8" fill="#5B6EE1" />
<rect x="18" y="22" width="1" height="20" fill="#D95763" />
<rect x="19" y="22" width="1" height="5" fill="#5B6EE1" />
<rect x="25" y="22" width="5" height="6" fill="#5B6EE1" />
<rect x="30" y="22" width="1" height="24" fill="#D95763" />
<rect x="33" y="22" width="1" height="22" fill="#D95763" />
<rect x="34" y="22" width="1" height="1" fill="#3F3F74" />
<rect x="36" y="22" width="1" height="1" fill="#3F3F74" />
<rect x="37" y="22" width="1" height="3" fill="#5B6EE1" />
<rect x="39" y="22" width="1" height="1" fill="#5B6EE1" />
<rect x="40" y="22" width="1" height="1" fill="#3F3F74" />
<rect x="41" y="22" width="1" height="1" fill="#5B6EE1" />
<rect x="42" y="22" width="1" height="1" fill="#3F3F74" />
<rect x="44" y="22" width="1" height="1" fill="#3F3F74" />
<rect x="45" y="22" width="1" height="20" fill="#AC3232" />
<rect x="46" y="22" width="2" height="8" fill="#3F3F74" />
<rect x="34" y="23" width="1" height="1" fill="#5B6EE1" />
<rect x="36" y="23" width="1" height="1" fill="#5B6EE1" />
<rect x="39" y="23" width="1" height="1" fill="#3F3F74" />
<rect x="40" y="23" width="1" height="1" fill="#5B6EE1" />
<rect x="41" y="23" width="1" height="3" fill="#3F3F74" />
<rect x="42" y="23" width="1" height="1" fill="#5B6EE1" />
<rect x="44" y="23" width="1" height="1" fill="#5B6EE1" />
<rect x="32" y="24" width="1" height="1" fill="#AC3232" />
<rect x="34" y="24" width="1" height="1" fill="#3F3F74" />
<rect x="36" y="24" width="1" height="1" fill="#3F3F74" />
<rect x="39" y="24" width="1" height="1" fill="#5B6EE1" />
<rect x="40" y="24" width="1" height="1" fill="#3F3F74" />
<rect x="42" y="24" width="1" height="1" fill="#3F3F74" />
<rect x="44" y="24" width="1" height="3" fill="#3F3F74" />
<rect x="32" y="25" width="1" height="3" fill="#D95763" />
<rect x="34" y="25" width="1" height="1" fill="#5B6EE1" />
<rect x="36" y="25" width="1" height="1" fill="#5B6EE1" />
<rect x="37" y="25" width="1" height="1" fill="#3F3F74" />
<rect x="39" y="25" width="1" height="1" fill="#3F3F74" />
<rect x="40" y="25" width="1" height="1" fill="#5B6EE1" />
<rect x="42" y="25" width="1" height="1" fill="#5B6EE1" />
<rect x="13" y="26" width="1" height="5" fill="#3F3F74" />
<rect x="34" y="26" width="1" height="1" fill="#3F3F74" />
<rect x="36" y="26" width="1" height="1" fill="#3F3F74" />
<rect x="37" y="26" width="1" height="3" fill="#5B6EE1" />
<rect x="39" y="26" width="1" height="1" fill="#5B6EE1" />
<rect x="40" y="26" width="1" height="1" fill="#3F3F74" />
<rect x="41" y="26" width="1" height="1" fill="#5B6EE1" />
<rect x="42" y="26" width="1" height="1" fill="#3F3F74" />
<rect x="19" y="27" width="1" height="17" fill="#D95763" />
<rect x="34" y="27" width="1" height="1" fill="#5B6EE1" />
<rect x="35" y="27" width="1" height="1" fill="#3F3F74" />
<rect x="36" y="27" width="1" height="1" fill="#5B6EE1" />
<rect x="39" y="27" width="1" height="1" fill="#3F3F74" />
<rect x="40" y="27" width="1" height="1" fill="#5B6EE1" />
<rect x="41" y="27" width="1" height="16" fill="#3F3F74" />
<rect x="42" y="27" width="1" height="1" fill="#5B6EE1" />
<rect x="44" y="27" width="1" height="1" fill="#AC3232" />
<rect x="25" y="28" width="4" height="4" fill="#5B6EE1" />
<rect x="29" y="28" width="1" height="17" fill="#D95763" />
<rect x="32" y="28" width="1" height="1" fill="#AC3232" />
<rect x="34" y="28" width="1" height="2" fill="#D95763" />
<rect x="35" y="28" width="1" height="3" fill="#5B6EE1" />
<rect x="36" y="28" width="1" height="1" fill="#3F3F74" />
<rect x="39" y="28" width="1" height="1" fill="#5B6EE1" />
<rect x="40" y="28" width="1" height="1" fill="#3F3F74" />
<rect x="42" y="28" width="1" height="1" fill="#3F3F74" />
<rect x="44" y="28" width="1" height="1" fill="#D95763" />
<rect x="32" y="29" width="1" height="3" fill="#D95763" />
<rect x="36" y="29" width="1" height="1" fill="#5B6EE1" />
<rect x="37" y="29" width="1" height="1" fill="#3F3F74" />
<rect x="39" y="29" width="1" height="12" fill="#3F3F74" />
<rect x="40" y="29" width="1" height="1" fill="#5B6EE1" />
<rect x="42" y="29" width="1" height="1" fill="#5B6EE1" />
<rect x="44" y="29" width="1" height="3" fill="#AC3232" />
<rect x="14" y="30" width="3" height="7" fill="#5B6EE1" />
<rect x="17" y="30" width="1" height="16" fill="#D95763" />
<rect x="34" y="30" width="1" height="1" fill="#AC3232" />
<rect x="36" y="30" width="1" height="1" fill="#3F3F74" />
<rect x="37" y="30" width="1" height="1" fill="#5B6EE1" />
<rect x="40" y="30" width="1" height="1" fill="#3F3F74" />
<rect x="42" y="30" width="1" height="1" fill="#3F3F74" />
<rect x="46" y="30" width="1" height="1" fill="#D95763" />
<rect x="47" y="30" width="1" height="7" fill="#3F3F74" />
<rect x="13" y="31" width="1" height="11" fill="#FFFFFF" />
<rect x="34" y="31" width="1" height="3" fill="#D95763" />
<rect x="35" y="31" width="1" height="1" fill="#3F3F74" />
<rect x="36" y="31" width="1" height="1" fill="#5B6EE1" />
<rect x="37" y="31" width="1" height="1" fill="#3F3F74" />
<rect x="40" y="31" width="1" height="1" fill="#5B6EE1" />
<rect x="42" y="31" width="1" height="1" fill="#5B6EE1" />
<rect x="46" y="31" width="1" height="11" fill="#AC3232" />
<rect x="20" y="32" width="1" height="10" fill="#D95763" />
<rect x="21" y="32" width="3" height="5" fill="#5B6EE1" />
<rect x="25" y="32" width="3" height="5" fill="#5B6EE1" />
<rect x="28" y="32" width="1" height="1" fill="#3F3F74" />
<rect x="32" y="32" width="1" height="1" fill="#AC3232" />
<rect x="35" y="32" width="1" height="1" fill="#5B6EE1" />
<rect x="36" y="32" width="1" height="1" fill="#3F3F74" />
<rect x="37" y="32" width="1" height="6" fill="#FFFFFF" />
<rect x="38" y="32" width="1" height="1" fill="#3F3F74" />
<rect x="40" y="32" width="1" height="1" fill="#3F3F74" />
<rect x="42" y="32" width="1" height="1" fill="#3F3F74" />
<rect x="43" y="32" width="1" height="14" fill="#AC3232" />
<rect x="44" y="32" width="1" height="1" fill="#D95763" />
<rect x="28" y="33" width="1" height="10" fill="#D95763" />
<rect x="32" y="33" width="1" height="3" fill="#D95763" />
<rect x="35" y="33" width="1" height="8" fill="#D95763" />
<rect x="36" y="33" width="1" height="1" fill="#5B6EE1" />
<rect x="38" y="33" width="1" height="1" fill="#5B6EE1" />
<rect x="40" y="33" width="1" height="1" fill="#5B6EE1" />
<rect x="42" y="33" width="1" height="1" fill="#5B6EE1" />
<rect x="44" y="33" width="1" height="3" fill="#AC3232" />
<rect x="34" y="34" width="1" height="1" fill="#AC3232" />
<rect x="36" y="34" width="1" height="1" fill="#3F3F74" />
<rect x="38" y="34" width="1" height="1" fill="#3F3F74" />
<rect x="40" y="34" width="1" height="1" fill="#3F3F74" />
<rect x="42" y="34" width="1" height="4" fill="#3F3F74" />
<rect x="34" y="35" width="1" height="1" fill="#D95763" />
<rect x="36" y="35" width="1" height="1" fill="#5B6EE1" />
<rect x="38" y="35" width="1" height="1" fill="#5B6EE1" />
<rect x="40" y="35" width="1" height="1" fill="#5B6EE1" />
<rect x="32" y="36" width="1" height="1" fill="#AC3232" />
<rect x="34" y="36" width="1" height="1" fill="#AC3232" />
<rect x="36" y="36" width="1" height="1" fill="#3F3F74" />
<rect x="38" y="36" width="1" height="1" fill="#3F3F74" />
<rect x="40" y="36" width="1" height="3" fill="#3F3F74" />
<rect x="44" y="36" width="1" height="1" fill="#D95763" />
<rect x="14" y="37" width="2" height="5" fill="#5B6EE1" />
<rect x="16" y="37" width="1" height="7" fill="#D95763" />
<rect x="21" y="37" width="2" height="1" fill="#5B6EE1" />
<rect x="23" y="37" width="1" height="2" fill="#FFFFFF" />
<rect x="25" y="37" width="1" height="3" fill="#FFFFFF" />
<rect x="26" y="37" width="2" height="1" fill="#5B6EE1" />
<rect x="32" y="37" width="1" height="3" fill="#D95763" />
<rect x="34" y="37" width="1" height="1" fill="#D95763" />
<rect x="36" y="37" width="1" height="1" fill="#5B6EE1" />
<rect x="38" y="37" width="1" height="1" fill="#5B6EE1" />
<rect x="44" y="37" width="1" height="3" fill="#AC3232" />
<rect x="47" y="37" width="1" height="3" fill="#AC3232" />
<rect x="21" y="38" width="1" height="2" fill="#D95763" />
<rect x="22" y="38" width="1" height="2" fill="#FFFFFF" />
<rect x="24" y="38" width="1" height="6" fill="#5B6EE1" />
<rect x="26" y="38" width="1" height="1" fill="#5B6EE1" />
<rect x="27" y="38" width="1" height="3" fill="#D95763" />
<rect x="34" y="38" width="1" height="1" fill="#AC3232" />
<rect x="36" y="38" width="1" height="3" fill="#FFFFFF" />
<rect x="37" y="38" width="1" height="1" fill="#5B6EE1" />
<rect x="38" y="38" width="1" height="1" fill="#3F3F74" />
<rect x="42" y="38" width="1" height="1" fill="#D95763" />
<rect x="23" y="39" width="1" height="8" fill="#5B6EE1" />
<rect x="26" y="39" width="1" height="3" fill="#FFFFFF" />
<rect x="34" y="39" width="1" height="1" fill="#D95763" />
<rect x="37" y="39" width="1" height="2" fill="#3F3F74" />
<rect x="38" y="39" width="1" height="1" fill="#5B6EE1" />
<rect x="40" y="39" width="1" height="1" fill="#5B6EE1" />
<rect x="42" y="39" width="1" height="1" fill="#AC3232" />
<rect x="21" y="40" width="1" height="3" fill="#FFFFFF" />
<rect x="22" y="40" width="1" height="3" fill="#5B6EE1" />
<rect x="25" y="40" width="1" height="9" fill="#5B6EE1" />
<rect x="32" y="40" width="1" height="1" fill="#AC3232" />
<rect x="34" y="40" width="1" height="1" fill="#AC3232" />
<rect x="38" y="40" width="1" height="1" fill="#3F3F74" />
<rect x="40" y="40" width="1" height="2" fill="#3F3F74" />
<rect x="42" y="40" width="1" height="1" fill="#D95763" />
<rect x="44" y="40" width="1" height="1" fill="#D95763" />
<rect x="47" y="40" width="1" height="3" fill="#FFFFFF" />
<rect x="27" y="41" width="1" height="3" fill="#FFFFFF" />
<rect x="32" y="41" width="1" height="3" fill="#D95763" />
<rect x="34" y="41" width="1" height="1" fill="#D95763" />
<rect x="35" y="41" width="1" height="2" fill="#FFFFFF" />
<rect x="36" y="41" width="1" height="1" fill="#D95763" />
<rect x="37" y="41" width="3" height="1" fill="#FFFFFF" />
<rect x="42" y="41" width="1" height="1" fill="#AC3232" />
<rect x="44" y="41" width="1" height="3" fill="#AC3232" />
<rect x="13" y="42" width="1" height="4" fill="#D95763" />
<rect x="14" y="42" width="1" height="2" fill="#FFFFFF" />
<rect x="15" y="42" width="1" height="1" fill="#5B6EE1" />
<rect x="18" y="42" width="1" height="1" fill="#663931" />
<rect x="20" y="42" width="1" height="2" fill="#FFFFFF" />
<rect x="26" y="42" width="1" height="1" fill="#3F3F74" />
<rect x="34" y="42" width="1" height="3" fill="#FFFFFF" />
<rect x="36" y="42" width="1" height="1" fill="#AC3232" />
<rect x="37" y="42" width="2" height="1" fill="#3F3F74" />
<rect x="39" y="42" width="2" height="1" fill="#FFFFFF" />
<rect x="42" y="42" width="1" height="1" fill="#D95763" />
<rect x="45" y="42" width="1" height="1" fill="#663931" />
<rect x="46" y="42" width="1" height="2" fill="#FFFFFF" />
<rect x="48" y="42" width="1" height="3" fill="#3F3F74" />
<rect x="49" y="42" width="1" height="2" fill="#FFFFFF" />
<rect x="50" y="42" width="1" height="2" fill="#AC3232" />
<rect x="15" y="43" width="1" height="2" fill="#FFFFFF" />
<rect x="18" y="43" width="1" height="3" fill="#D95763" />
<rect x="21" y="43" width="2" height="7" fill="#D95763" />
<rect x="26" y="43" width="1" height="1" fill="#5B6EE1" />
<rect x="28" y="43" width="1" height="3" fill="#FFFFFF" />
<rect x="35" y="43" width="2" height="1" fill="#D95763" />
<rect x="37" y="43" width="1" height="2" fill="#3F3F74" />
<rect x="38" y="43" width="1" height="1" fill="#5B6EE1" />
<rect x="39" y="43" width="1" height="7" fill="#3F3F74" />
<rect x="40" y="43" width="2" height="1" fill="#FFFFFF" />
<rect x="42" y="43" width="1" height="1" fill="#AC3232" />
<rect x="45" y="43" width="1" height="4" fill="#FFFFFF" />
<rect x="47" y="43" width="1" height="6" fill="#AC3232" />
<rect x="14" y="44" width="1" height="4" fill="#5B6EE1" />
<rect x="16" y="44" width="1" height="3" fill="#FFFFFF" />
<rect x="19" y="44" width="1" height="3" fill="#FFFFFF" />
<rect x="20" y="44" width="1" height="6" fill="#D95763" />
<rect x="24" y="44" width="1" height="1" fill="#3F3F74" />
<rect x="26" y="44" width="1" height="1" fill="#3F3F74" />
<rect x="27" y="44" width="1" height="6" fill="#D95763" />
<rect x="32" y="44" width="1" height="1" fill="#AC3232" />
<rect x="33" y="44" width="1" height="3" fill="#FFFFFF" />
<rect x="35" y="44" width="1" height="6" fill="#D95763" />
<rect x="36" y="44" width="1" height="1" fill="#AC3232" />
<rect x="38" y="44" width="1" height="1" fill="#3F3F74" />
<rect x="40" y="44" width="1" height="3" fill="#3F3F74" />
<rect x="41" y="44" width="1" height="2" fill="#FFFFFF" />
<rect x="42" y="44" width="1" height="1" fill="#D95763" />
<rect x="44" y="44" width="1" height="1" fill="#D95763" />
<rect x="46" y="44" width="1" height="5" fill="#AC3232" />
<rect x="49" y="44" width="1" height="4" fill="#3F3F74" />
<rect x="50" y="44" width="1" height="3" fill="#FFFFFF" />
<rect x="15" y="45" width="1" height="4" fill="#D95763" />
<rect x="24" y="45" width="1" height="3" fill="#5B6EE1" />
<rect x="26" y="45" width="1" height="5" fill="#D95763" />
<rect x="29" y="45" width="1" height="2" fill="#FFFFFF" />
<rect x="32" y="45" width="1" height="1" fill="#D95763" />
<rect x="34" y="45" width="1" height="1" fill="#D95763" />
<rect x="36" y="45" width="1" height="1" fill="#D95763" />
<rect x="37" y="45" width="1" height="1" fill="#AC3232" />
<rect x="38" y="45" width="1" height="1" fill="#5B6EE1" />
<rect x="42" y="45" width="1" height="2" fill="#FFFFFF" />
<rect x="44" y="45" width="1" height="1" fill="#AC3232" />
<rect x="48" y="45" width="1" height="4" fill="#AC3232" />
<rect x="13" y="46" width="1" height="2" fill="#AC3232" />
<rect x="17" y="46" width="2" height="3" fill="#FFFFFF" />
<rect x="28" y="46" width="1" height="4" fill="#D95763" />
<rect x="30" y="46" width="1" height="3" fill="#FFFFFF" />
<rect x="32" y="46" width="1" height="3" fill="#FFFFFF" />
<rect x="34" y="46" width="1" height="1" fill="#AC3232" />
<rect x="36" y="46" width="1" height="1" fill="#AC3232" />
<rect x="37" y="46" width="1" height="3" fill="#D95763" />
<rect x="38" y="46" width="1" height="3" fill="#3F3F74" />
<rect x="41" y="46" width="1" height="4" fill="#AC3232" />
<rect x="43" y="46" width="2" height="3" fill="#FFFFFF" />
<rect x="51" y="46" width="1" height="5" fill="#FFFFFF" />
<rect x="16" y="47" width="1" height="2" fill="#D95763" />
<rect x="19" y="47" width="1" height="2" fill="#D95763" />
<rect x="23" y="47" width="1" height="3" fill="#D95763" />
<rect x="29" y="47" width="1" height="3" fill="#D95763" />
<rect x="33" y="47" width="2" height="1" fill="#D95763" />
<rect x="36" y="47" width="1" height="1" fill="#D95763" />
<rect x="40" y="47" width="1" height="1" fill="#AC3232" />
<rect x="42" y="47" width="1" height="1" fill="#AC3232" />
<rect x="45" y="47" width="1" height="2" fill="#AC3232" />
<rect x="50" y="47" width="1" height="1" fill="#AC3232" />
<rect x="10" y="48" width="3" height="1" fill="#FFFFFF" />
<rect x="13" y="48" width="2" height="3" fill="#663931" />
<rect x="24" y="48" width="1" height="1" fill="#3F3F74" />
<rect x="33" y="48" width="1" height="2" fill="#D95763" />
<rect x="34" y="48" width="1" height="1" fill="#AC3232" />
<rect x="36" y="48" width="1" height="1" fill="#AC3232" />
<rect x="40" y="48" width="1" height="1" fill="#D95763" />
<rect x="42" y="48" width="1" height="1" fill="#D95763" />
<rect x="49" y="48" width="2" height="3" fill="#663931" />
<rect x="9" y="49" width="2" height="1" fill="#FFFFFF" />
<rect x="12" y="49" width="1" height="2" fill="#FFFFFF" />
<rect x="15" y="49" width="3" height="3" fill="#663931" />
<rect x="18" y="49" width="1" height="2" fill="#FFFFFF" />
<rect x="19" y="49" width="1" height="3" fill="#663931" />
<rect x="24" y="49" width="1" height="1" fill="#5B6EE1" />
<rect x="25" y="49" width="1" height="1" fill="#D95763" />
<rect x="30" y="49" width="1" height="1" fill="#D95763" />
<rect x="31" y="49" width="1" height="4" fill="#FFFFFF" />
<rect x="32" y="49" width="1" height="1" fill="#D95763" />
<rect x="34" y="49" width="1" height="1" fill="#D95763" />
<rect x="36" y="49" width="1" height="1" fill="#D95763" />
<rect x="37" y="49" width="1" height="1" fill="#AC3232" />
<rect x="38" y="49" width="1" height="1" fill="#D95763" />
<rect x="40" y="49" width="1" height="1" fill="#AC3232" />
<rect x="42" y="49" width="2" height="1" fill="#AC3232" />
<rect x="44" y="49" width="1" height="3" fill="#FFFFFF" />
<rect x="45" y="49" width="4" height="3" fill="#663931" />
<rect x="8" y="50" width="2" height="1" fill="#FFFFFF" />
<rect x="20" y="50" width="9" height="1" fill="#663931" />
<rect x="29" y="50" width="2" height="1" fill="#FFFFFF" />
<rect x="32" y="50" width="12" height="3" fill="#663931" />
<rect x="7" y="51" width="2" height="1" fill="#FFFFFF" />
<rect x="14" y="51" width="1" height="1" fill="#663931" />
<rect x="18" y="51" width="1" height="1" fill="#663931" />
<rect x="20" y="51" width="7" height="1" fill="#663931" />
<rect x="27" y="51" width="2" height="1" fill="#FFFFFF" />
<rect x="29" y="51" width="2" height="2" fill="#663931" />
<rect x="49" y="51" width="1" height="1" fill="#663931" />
<rect x="4" y="52" width="4" height="2" fill="#FFFFFF" />
<rect x="20" y="52" width="6" height="1" fill="#663931" />
<rect x="26" y="52" width="2" height="1" fill="#FFFFFF" />
<rect x="28" y="52" width="1" height="1" fill="#663931" />
<rect x="3" y="53" width="1" height="1" fill="#FFFFFF" />
<rect x="8" y="53" width="5" height="1" fill="#FFFFFF" />
<rect x="24" y="53" width="2" height="1" fill="#FFFFFF" />
<rect x="4" y="54" width="3" height="2" fill="#FFFFFF" />
<rect x="8" y="54" width="4" height="1" fill="#FFFFFF" />
<rect x="13" y="54" width="4" height="1" fill="#FFFFFF" />
<rect x="23" y="54" width="2" height="1" fill="#FFFFFF" />
<rect x="7" y="55" width="4" height="1" fill="#FFFFFF" />
<rect x="12" y="55" width="3" height="1" fill="#FFFFFF" />
<rect x="16" y="55" width="4" height="3" fill="#FFFFFF" />
<rect x="21" y="55" width="3" height="1" fill="#FFFFFF" />
<rect x="8" y="56" width="4" height="1" fill="#FFFFFF" />
<rect x="13" y="56" width="1" height="2" fill="#FFFFFF" />
<rect x="15" y="56" width="1" height="2" fill="#FFFFFF" />
<rect x="20" y="56" width="2" height="1" fill="#FFFFFF" />
<rect x="10" y="57" width="3" height="1" fill="#FFFFFF" />
<rect x="14" y="57" width="1" height="1" fill="#FFFFFF" />
</svg>