<?xml version="1.0" encoding="UTF-8" ?>
<svg version="1.1" width="16" height="16" xmlns="http://www.w3.org/2000/svg" shape-rendering="crispEdges">
<rect x="3" y="0" width="1" height="1" fill="#222034" />
<rect x="2" y="1" width="1" height="9" fill="#222034" />
<rect x="3" y="1" width="1" height="12" fill="#FFFFFF" />
<rect x="4" y="1" width="1" height="8" fill="#222034" />
<rect x="5" y="5" width="1" height="1" fill="#222034" />
<rect x="7" y="5" width="1" height="1" fill="#222034" />
<rect x="9" y="5" width="1" height="1" fill="#222034" />
<rect x="11" y="5" width="1" height="1" fill="#222034" />
<rect x="5" y="6" width="1" height="8" fill="#FFFFFF" />
<rect x="6" y="6" width="1" height="2" fill="#222034" />
<rect x="7" y="6" width="1" height="8" fill="#FFFFFF" />
<rect x="8" y="6" width="1" height="2" fill="#222034" />
<rect x="9" y="6" width="1" height="8" fill="#FFFFFF" />
<rect x="10" y="6" width="1" height="2" fill="#222034" />
<rect x="11" y="6" width="1" height="6" fill="#FFFFFF" />
<rect x="12" y="6" width="1" height="8" fill="#222034" />
<rect x="1" y="8" width="1" height="1" fill="#222034" />
<rect x="6" y="8" width="1" height="6" fill="#FFFFFF" />
<rect x="8" y="8" width="1" height="6" fill="#FFFFFF" />
<rect x="10" y="8" width="1" height="6" fill="#FFFFFF" />
<rect x="0" y="9" width="1" height="4" fill="#222034" />
<rect x="1" y="9" width="1" height="3" fill="#FFFFFF" />
<rect x="4" y="9" width="1" height="5" fill="#FFFFFF" />
<rect x="2" y="10" width="1" height="3" fill="#FFFFFF" />
<rect x="1" y="12" width="1" height="1" fill="#222034" />
<rect x="11" y="12" width="1" height="3" fill="#222034" />
<rect x="2" y="13" width="2" height="1" fill="#222034" />
<rect x="3" y="14" width="8" height="1" fill="#222034" />
<rect x="4" y="15" width="7" height="1" fill="#222034" />
</svg>